<svg width="25" height="25" viewBox="0 0 25 25" fill="none" xmlns="http://www.w3.org/2000/svg">
<path d="M12.7728 0.166504C19.4623 0.166504 24.8822 5.58643 24.8822 12.2759C24.8822 18.9653 19.4623 24.3853 12.7728 24.3853C6.08337 24.3853 0.663452 18.9653 0.663452 12.2759C0.663452 5.58643 6.08337 0.166504 12.7728 0.166504ZM7.10876 14.4243H12.7728V17.8862C12.7728 18.4087 13.4076 18.6724 13.7738 18.3013L19.3549 12.6909C19.5843 12.4614 19.5843 12.0952 19.3549 11.8657L13.7738 6.25049C13.4027 5.87939 12.7728 6.14307 12.7728 6.66553V10.1274H7.10876C6.7865 10.1274 6.52283 10.3911 6.52283 10.7134V13.8384C6.52283 14.1606 6.7865 14.4243 7.10876 14.4243Z" fill="#00C2FF"/>
</svg>
